<?xml version="1.0" standalone="no"?>
<!DOCTYPE svg PUBLIC "-//W3C//DTD SVG 20010904//EN"
 "http://www.w3.org/TR/2001/REC-SVG-20010904/DTD/svg10.dtd">
<svg version="1.0" xmlns="http://www.w3.org/2000/svg"
 width="1024.000000pt" height="1024.000000pt" viewBox="0 0 1024.000000 1024.000000"
 preserveAspectRatio="xMidYMid meet">
<metadata>
Created by potrace 1.11, written by Peter Selinger 2001-2013
</metadata>
<g transform="translate(0.000000,1024.000000) scale(0.100000,-0.100000)"
fill="#000000" stroke="none">
<path d="M7480 9840 c-36 -4 -83 -11 -105 -14 -22 -4 -56 -9 -75 -11 -19 -3
-75 -16 -125 -30 -49 -14 -97 -27 -105 -29 -54 -11 -81 -20 -86 -27 -3 -5 -14
-9 -25 -9 -10 0 -19 -5 -19 -11 0 -5 -4 -8 -9 -5 -5 3 -31 -4 -57 -16 -27 -12
-51 -23 -54 -23 -22 -5 -90 -39 -90 -44 0 -4 -6 -8 -12 -8 -19 0 -128 -64
-128 -75 0 -5 -4 -7 -9 -3 -16 9 -326 -216 -314 -229 4 -3 2 -6 -4 -6 -16 0
-53 -36 -45 -45 4 -5 2 -5 -4 -2 -12 7 -181 -169 -177 -184 2 -5 -1 -8 -6 -6
-5 1 -23 -16 -40 -38 -17 -22 -34 -44 -39 -50 -33 -42 -50 -73 -44 -80 4 -5 2
-5 -4 -2 -7 4 -18 -5 -26 -21 -7 -15 -29 -52 -48 -82 -19 -30 -34 -58 -32 -62
1 -5 -3 -8 -9 -8 -5 0 -8 -4 -5 -9 4 -5 2 -11 -2 -13 -12 -4 -102 -193 -102
-212 0 -9 -5 -16 -11 -16 -6 0 -9 -7 -6 -15 4 -8 2 -17 -3 -20 -8 -5 -52 -126
-55 -155 -1 -8 -5 -22 -8 -30 -6 -14 -24 -83 -33 -122 -11 -50 -14 -63 -18
-102 -3 -22 -8 -52 -11 -66 -18 -90 -25 -385 -12 -515 13 -128 19 -171 26
-185 4 -8 7 -22 6 -30 0 -8 5 -37 13 -65 7 -27 15 -63 18 -79 3 -16 10 -41 16
-55 6 -14 12 -33 13 -41 5 -32 60 -175 70 -182 5 -4 7 -8 3 -8 -4 0 5 -24 19
-52 15 -29 28 -57 29 -63 3 -16 87 -164 136 -240 86 -133 236 -315 258 -315 6
0 9 -3 7 -7 -1 -5 2 -9 7 -10 4 -1 17 -16 28 -33 10 -18 21 -30 24 -27 3 2 22
-12 42 -32 20 -21 64 -59 97 -84 33 -26 71 -56 83 -67 13 -11 30 -20 38 -20 9
0 12 -4 9 -10 -3 -5 0 -10 8 -10 8 0 20 -7 27 -15 7 -9 15 -13 17 -11 3 2 13
-4 24 -15 11 -11 25 -17 31 -13 6 4 8 3 4 -4 -6 -10 30 -28 47 -24 4 1 7 -2 7
-7 0 -9 219 -121 235 -121 4 0 21 -6 38 -14 47 -21 199 -73 233 -80 16 -3 56
-12 89 -20 33 -8 78 -17 100 -20 23 -4 52 -8 65 -11 123 -24 475 -24 610 0 14
2 42 7 62 10 20 3 70 12 110 21 40 9 85 19 101 21 15 3 27 10 27 15 0 5 4 7 9
4 5 -3 26 1 47 10 21 9 50 18 63 21 14 2 32 10 40 16 8 7 15 11 15 9 4 -13
296 125 296 140 0 5 3 8 8 7 14 -2 52 13 52 21 0 4 16 15 35 24 19 9 35 21 35
27 0 6 5 7 10 4 6 -3 10 -3 10 2 0 4 23 21 50 37 27 16 47 33 44 38 -3 4 2 8
11 8 8 0 18 7 21 15 4 8 12 15 18 15 19 0 231 206 300 290 33 41 71 86 83 100
13 14 23 28 23 32 0 5 0 10 0 13 0 2 12 17 26 32 13 14 39 52 56 82 17 31 34
58 37 61 13 11 71 130 64 130 -4 0 -3 4 3 8 11 7 73 137 78 163 1 8 10 32 20
54 9 21 18 46 20 55 2 8 6 22 9 30 10 24 40 140 51 198 3 13 7 31 10 40 3 9 7
37 10 62 3 25 8 56 11 70 28 134 22 470 -11 650 -8 47 -17 99 -20 115 -3 17
-9 44 -15 61 -5 17 -11 40 -14 50 -8 38 -47 159 -55 169 -5 6 -8 12 -8 15 2
12 -17 60 -53 138 -22 46 -39 88 -39 93 0 5 -4 9 -10 9 -5 0 -10 9 -10 19 0
11 -3 21 -7 23 -5 2 -19 24 -32 50 -13 26 -32 56 -43 68 -10 11 -16 20 -13 20
7 0 -47 74 -58 78 -4 2 -5 7 -3 11 3 4 -10 24 -27 43 -18 20 -41 49 -52 64
-11 15 -36 46 -57 68 -20 23 -46 52 -58 66 -12 14 -18 18 -14 10 4 -9 3 -12
-2 -7 -5 5 -9 12 -9 15 0 15 -17 32 -25 27 -5 -3 -12 0 -16 6 -5 8 -3 9 7 4
19 -11 -105 103 -150 138 -20 15 -49 38 -66 52 -16 14 -35 25 -41 25 -7 0 -14
7 -18 15 -3 8 -12 15 -21 15 -8 0 -15 4 -15 8 0 5 -12 15 -27 23 -16 7 -43 24
-60 37 -18 14 -33 20 -33 16 0 -5 -4 -4 -8 2 -10 15 -119 74 -137 74 -8 0 -15
5 -15 11 0 5 -4 7 -10 4 -5 -3 -10 -1 -10 4 0 6 -8 11 -18 11 -10 0 -22 3 -26
8 -4 4 -11 7 -14 7 -4 1 -16 6 -27 12 -43 24 -188 72 -242 80 -18 3 -33 8 -33
12 0 4 -6 8 -12 8 -7 0 -29 4 -48 8 -19 4 -44 9 -55 11 -11 1 -30 5 -42 8 -11
2 -43 7 -70 11 -26 4 -59 9 -73 12 -43 9 -402 11 -470 3z m-302 -1045 c17 -4
32 -11 32 -15 0 -4 12 -14 28 -21 23 -12 120 -70 212 -128 14 -8 28 -14 33
-13 4 1 7 -2 7 -8 0 -5 16 -17 35 -26 19 -9 35 -21 35 -26 0 -6 6 -8 14 -5 8
3 17 -1 20 -9 3 -9 10 -12 16 -9 5 3 10 3 10 -2 0 -8 45 -37 65 -42 6 -1 14
-9 18 -17 4 -8 13 -14 19 -14 6 0 19 -6 27 -14 9 -8 23 -16 31 -18 8 -2 17 -5
20 -8 20 -22 64 -49 71 -44 5 3 9 0 9 -6 0 -6 4 -9 9 -6 5 3 11 0 14 -7 3 -6
22 -21 43 -32 22 -11 45 -26 52 -33 8 -7 17 -10 22 -7 4 3 11 -2 14 -11 4 -9
9 -14 12 -11 3 3 14 -3 25 -14 10 -10 26 -19 34 -19 8 0 15 -5 15 -11 0 -5 5
-7 10 -4 6 3 13 -1 16 -9 3 -9 11 -16 16 -16 5 0 22 -9 37 -19 15 -11 33 -21
41 -23 7 -2 24 -13 38 -25 13 -13 28 -20 33 -17 5 3 9 0 9 -6 0 -6 4 -9 9 -6
5 3 11 -1 15 -9 3 -8 15 -15 26 -15 12 0 18 -4 15 -10 -3 -5 -1 -10 5 -10 7 0
25 -9 41 -21 16 -11 29 -17 29 -12 0 4 5 0 11 -10 6 -9 14 -15 20 -12 5 4 12
-1 15 -9 3 -9 10 -16 15 -16 5 0 55 -29 111 -65 57 -35 119 -72 138 -82 19 -9
40 -22 46 -28 6 -5 27 -19 47 -30 20 -11 37 -23 37 -28 0 -4 4 -5 10 -2 5 3
15 -5 21 -19 7 -14 15 -24 19 -21 3 2 6 -14 6 -35 -1 -27 -9 -48 -30 -73 -17
-20 -34 -34 -38 -31 -4 3 -8 0 -8 -5 0 -6 -7 -11 -15 -11 -7 0 -18 -7 -23 -16
-5 -9 -13 -16 -18 -16 -18 -1 -54 -21 -54 -30 0 -5 -4 -7 -9 -3 -6 3 -14 -2
-19 -11 -5 -9 -12 -15 -16 -15 -13 2 -66 -30 -66 -40 0 -6 -4 -7 -10 -4 -5 3
-10 1 -10 -5 0 -6 -4 -9 -8 -6 -5 3 -18 -3 -28 -12 -10 -10 -23 -18 -28 -18
-5 -1 -20 -12 -34 -25 -14 -13 -22 -18 -17 -10 4 7 -7 3 -26 -10 -19 -13 -36
-27 -37 -32 -2 -4 -7 -5 -12 -2 -4 3 -13 -2 -20 -10 -7 -8 -17 -15 -22 -15
-11 0 -72 -42 -76 -53 -2 -4 -8 -5 -13 -1 -5 3 -12 -2 -15 -10 -3 -9 -10 -14
-14 -11 -5 3 -15 -1 -23 -9 -8 -8 -17 -12 -21 -9 -3 4 -6 1 -6 -5 0 -7 -7 -12
-15 -12 -9 0 -18 -7 -21 -15 -4 -8 -9 -13 -14 -10 -4 2 -16 -4 -27 -15 -12
-10 -23 -16 -27 -13 -3 3 -8 -2 -12 -11 -3 -9 -10 -13 -15 -10 -5 3 -9 0 -9
-5 0 -6 -3 -10 -7 -9 -9 3 -65 -32 -75 -47 -5 -6 -8 -6 -8 0 0 6 -7 1 -16 -10
-8 -11 -16 -18 -18 -15 -2 3 -26 -10 -54 -27 -27 -18 -55 -33 -60 -33 -6 0
-16 -8 -21 -17 -6 -10 -11 -15 -11 -11 0 7 -110 -59 -137 -82 -7 -6 -13 -7
-13 -3 0 4 -4 3 -8 -3 -4 -6 -44 -33 -89 -59 -46 -26 -83 -52 -83 -56 0 -5 -3
-8 -7 -7 -16 3 -64 -22 -69 -37 -3 -8 -10 -12 -15 -9 -5 3 -9 0 -9 -7 0 -7 -3
-10 -6 -6 -4 3 -27 -8 -53 -26 -25 -17 -48 -31 -51 -30 -3 1 -11 -4 -19 -10
-34 -29 -129 -76 -145 -72 -41 11 -56 19 -56 31 0 8 -4 14 -8 14 -4 0 -9 15
-11 33 -7 72 -6 2125 2 2162 13 66 41 79 125 60z"/>
<path d="M3087 6814 c-1 -1 -47 -4 -102 -8 -55 -3 -118 -7 -140 -10 -22 -2
-65 -7 -95 -10 -30 -3 -66 -8 -80 -11 -14 -3 -38 -8 -55 -10 -78 -12 -141 -24
-190 -37 -22 -5 -51 -12 -65 -14 -14 -3 -50 -12 -80 -21 -30 -9 -62 -17 -70
-19 -48 -8 -291 -92 -375 -130 -22 -10 -42 -18 -45 -19 -28 -6 -80 -31 -80
-39 0 -5 -3 -7 -6 -3 -6 6 -185 -82 -195 -96 -3 -5 -9 -8 -13 -8 -19 3 -27 0
-22 -7 3 -5 0 -9 -7 -9 -17 0 -177 -94 -177 -104 0 -5 -4 -8 -8 -7 -10 4 -132
-74 -132 -84 0 -4 -6 -8 -14 -8 -8 0 -22 -10 -31 -22 -8 -13 -19 -22 -23 -21
-10 3 -132 -87 -132 -98 0 -5 -5 -9 -11 -9 -36 0 -489 -449 -533 -528 -5 -10
-15 -21 -21 -27 -26 -21 -113 -143 -108 -149 4 -3 2 -6 -4 -6 -9 0 -123 -162
-123 -175 0 -3 -8 -14 -18 -25 -9 -11 -15 -23 -14 -27 2 -3 -1 -9 -6 -12 -11
-7 -67 -104 -83 -143 -6 -16 -15 -28 -20 -28 -5 0 -9 -998 -9 -2445 l0 -2445
2491 0 2491 0 77 46 c42 26 79 51 83 58 4 6 8 7 8 1 0 -5 7 -1 15 9 8 11 15
16 15 12 0 -5 15 3 33 17 18 14 55 40 82 58 27 18 57 40 66 49 9 8 35 28 58
44 23 17 41 33 41 38 0 4 6 8 14 8 8 0 26 14 40 31 14 17 26 27 26 23 0 -9 37
25 222 207 76 75 138 139 138 142 0 4 14 20 31 37 18 16 29 30 26 30 -3 0 9
15 26 33 18 18 43 49 57 70 14 20 28 37 33 37 4 0 7 4 7 9 0 6 11 22 25 37 13
14 22 30 19 35 -3 5 -1 9 4 9 12 0 136 180 125 180 -5 0 0 5 10 11 9 6 15 14
12 20 -4 5 -1 9 4 9 6 0 11 6 11 14 0 8 4 16 8 18 18 6 184 323 175 332 -4 3
-2 6 3 6 8 0 30 46 39 80 1 3 13 30 27 60 14 30 29 66 33 80 4 14 12 30 17 37
5 7 7 17 3 23 -3 5 -2 10 3 10 5 0 12 10 15 22 3 13 26 88 51 167 25 79 43
147 41 152 -3 4 -1 10 4 13 7 5 20 55 26 106 1 8 4 22 8 30 3 8 8 31 11 51 3
20 7 42 10 50 3 8 7 32 10 54 3 22 8 51 10 65 3 14 8 50 11 80 3 30 8 71 10
90 27 236 22 594 -11 830 -3 19 -7 51 -9 70 -3 19 -7 46 -10 60 -3 14 -8 41
-10 60 -6 45 -9 60 -50 235 -15 61 -29 117 -32 125 -4 8 -7 18 -8 23 -2 4 -3
8 -5 10 -1 1 -3 10 -5 20 -5 29 -38 131 -45 142 -3 6 -17 43 -30 83 -13 39
-27 72 -32 72 -5 0 -7 4 -3 9 3 5 1 12 -5 16 -6 4 -8 11 -5 16 4 5 2 9 -4 9
-6 0 -8 7 -5 15 4 8 1 15 -7 15 -7 0 -10 2 -7 6 3 3 -7 32 -23 65 -16 32 -29
62 -29 64 0 3 -12 24 -27 48 -14 23 -25 42 -22 43 6 1 -93 182 -111 203 -8 9
-16 23 -18 31 -3 11 -79 130 -146 225 -23 33 -84 113 -104 135 -7 8 -33 42
-60 76 -26 33 -69 84 -97 113 -27 29 -51 57 -53 62 -2 5 -10 9 -18 9 -8 0 -13
4 -12 9 2 5 -33 43 -77 85 -44 41 -91 87 -105 101 -14 14 -30 22 -35 18 -6 -4
-7 -4 -3 1 9 10 -52 67 -64 60 -4 -3 -8 2 -8 10 0 9 -3 16 -8 16 -4 0 -25 15
-47 34 -22 19 -41 33 -43 32 -1 -2 -19 12 -39 30 -20 19 -38 32 -40 30 -2 -2
-18 10 -35 26 -17 16 -33 27 -35 24 -2 -2 -16 7 -30 20 -14 13 -32 24 -38 24
-7 0 -16 7 -19 16 -3 8 -10 13 -15 10 -5 -4 -11 -3 -13 2 -3 8 -116 79 -163
102 -16 8 -36 21 -43 28 -8 7 -18 10 -23 7 -5 -4 -9 -2 -9 3 0 8 -288 152
-313 156 -7 1 -21 7 -32 13 -11 6 -23 11 -28 12 -4 0 -24 8 -45 17 -56 23
-232 84 -240 82 -4 -1 -16 2 -27 6 -11 4 -31 12 -45 16 -36 13 -228 58 -275
65 -60 9 -80 13 -80 16 0 1 -9 3 -20 4 -11 2 -38 6 -60 9 -22 3 -58 8 -80 11
-113 16 -261 26 -438 29 -75 1 -138 1 -140 0z m-8 -948 c2 2 10 -1 17 -7 8 -6
21 -9 29 -5 8 3 15 1 15 -5 0 -6 5 -7 10 -4 6 3 10 1 10 -4 0 -6 6 -11 14 -11
19 0 85 -39 113 -66 12 -12 26 -24 30 -25 5 -2 24 -24 43 -49 19 -25 37 -47
40 -50 3 -3 7 -14 8 -25 2 -11 7 -22 12 -25 4 -3 15 -36 25 -74 22 -90 16
-210 -14 -286 -23 -59 -81 -150 -94 -150 -5 0 -5 -4 -2 -10 3 -5 2 -10 -4 -10
-5 0 -21 -10 -35 -22 -43 -40 -66 -58 -66 -53 0 3 -10 -1 -23 -10 -45 -29
-131 -48 -224 -50 -51 0 -93 2 -93 5 0 3 -9 6 -20 7 -11 1 -34 9 -51 17 -18 9
-35 13 -40 10 -5 -3 -9 -1 -9 4 0 5 -16 17 -35 28 -19 10 -35 22 -35 26 0 5
-6 8 -12 8 -7 1 -31 24 -53 52 -22 28 -46 57 -53 64 -7 8 -11 14 -7 14 3 0 0
10 -7 23 -64 115 -66 326 -2 425 8 12 12 22 9 22 -4 0 0 6 7 14 7 8 29 34 48
59 19 25 58 60 85 78 28 19 53 39 57 44 4 6 8 6 8 2 0 -4 10 -2 23 5 12 7 25
11 30 10 4 -1 7 2 7 6 0 4 8 8 18 9 26 1 127 15 130 18 1 1 22 -1 45 -6 23 -4
44 -5 46 -3z m2253 -511 c18 -4 54 -18 81 -31 26 -13 47 -21 47 -19 0 5 40
-27 72 -57 10 -10 23 -18 30 -18 6 0 9 -3 6 -6 -3 -3 5 -17 19 -32 24 -26 70
-106 62 -108 -2 0 1 -7 7 -15 10 -12 17 -33 31 -89 16 -66 -2 -219 -33 -279
-8 -14 -14 -30 -14 -34 0 -5 -7 -15 -15 -24 -8 -8 -12 -19 -9 -25 4 -6 2 -8
-4 -4 -6 3 -13 -3 -17 -14 -3 -11 -11 -20 -16 -20 -5 0 -9 -6 -9 -14 0 -8 -5
-18 -12 -22 -7 -5 -8 -3 -3 7 8 12 6 12 -8 0 -9 -7 -14 -17 -11 -22 3 -5 2 -9
-3 -8 -17 4 -43 -14 -36 -25 3 -6 3 -8 -2 -4 -4 4 -20 -1 -35 -12 -16 -11 -35
-20 -43 -20 -9 0 -18 -4 -21 -9 -3 -4 -20 -12 -38 -16 -18 -4 -40 -9 -48 -11
-29 -8 -146 -7 -185 1 -57 11 -176 68 -204 99 -13 14 -28 23 -33 20 -5 -3 -7
-2 -6 3 2 5 -8 20 -20 33 -13 14 -33 43 -44 65 -11 22 -23 42 -27 45 -3 3 -8
14 -9 25 -2 11 -7 22 -10 25 -4 3 -8 12 -8 20 -1 8 -4 29 -8 45 -13 69 -6 188
14 226 6 11 8 24 5 29 -3 6 -2 10 4 10 5 0 12 14 16 30 4 17 10 30 15 30 5 0
11 8 14 18 3 9 19 31 35 48 17 18 27 35 23 39 -4 4 0 5 8 3 8 -1 14 3 13 10
-2 6 1 11 6 10 5 -2 17 6 26 17 9 11 13 14 9 6 -7 -14 55 26 68 44 4 6 8 7 8
3 0 -4 17 0 38 9 20 8 51 18 67 20 17 3 31 6 33 8 5 4 141 -3 174 -10z m-2202
-1481 c85 -20 166 -38 180 -40 14 -2 59 -12 100 -23 41 -11 86 -22 100 -25 74
-16 115 -26 220 -51 63 -16 124 -29 135 -30 11 -1 27 -5 35 -8 8 -4 26 -8 40
-10 14 -2 32 -7 40 -10 8 -3 29 -8 45 -11 17 -3 62 -13 100 -21 39 -9 77 -18
85 -20 8 -2 44 -11 80 -20 36 -10 76 -19 90 -21 14 -2 81 -17 150 -34 114 -28
145 -35 205 -45 11 -2 21 -4 23 -5 1 -2 7 -4 12 -5 6 -1 11 -3 13 -5 3 -2 26
-7 72 -15 22 -4 43 -9 48 -12 4 -2 20 -6 35 -9 15 -2 64 -13 108 -24 45 -11
92 -22 105 -24 13 -3 24 -5 24 -6 0 -1 11 -3 25 -6 28 -4 194 -46 198 -49 3
-3 -99 -209 -107 -215 -16 -12 -50 -77 -44 -83 3 -4 2 -7 -4 -7 -14 0 -74 -86
-65 -95 4 -5 2 -5 -4 -2 -12 7 -29 -20 -25 -38 2 -5 -1 -7 -4 -3 -9 8 -51 -42
-47 -55 1 -5 -1 -6 -6 -3 -5 3 -16 -4 -25 -15 -9 -10 -15 -19 -12 -19 3 0 -22
-24 -54 -52 -33 -29 -60 -59 -60 -66 -1 -7 -5 -11 -10 -7 -5 3 -16 -4 -24 -15
-7 -11 -17 -17 -20 -14 -4 4 -9 -1 -13 -10 -3 -9 -12 -16 -19 -16 -7 0 -15 -4
-17 -8 -1 -5 -34 -27 -73 -50 -38 -23 -75 -45 -80 -49 -6 -4 -15 -9 -20 -10
-6 -1 -32 -11 -60 -24 -27 -12 -57 -23 -65 -25 -8 -1 -40 -9 -70 -18 -69 -19
-142 -28 -249 -31 -156 -3 -369 41 -493 102 -26 13 -52 23 -58 23 -6 0 -18 7
-26 15 -9 8 -24 15 -35 15 -11 0 -17 5 -14 10 3 6 1 10 -6 10 -16 0 -124 79
-183 134 -27 25 -53 46 -58 46 -4 0 -7 6 -5 13 1 6 -4 11 -11 9 -8 -1 -11 2
-8 7 4 5 -3 16 -14 24 -11 7 -17 17 -13 20 3 4 -1 7 -11 7 -9 0 -14 5 -11 10
3 6 -1 13 -9 16 -9 3 -16 12 -16 18 0 7 -8 21 -17 32 -63 71 -206 389 -229
507 -2 10 -5 26 -8 35 -3 9 -7 28 -10 42 -3 14 -8 36 -11 50 -3 14 -7 41 -10
60 -3 19 -7 46 -10 60 -4 19 -13 127 -17 190 -2 37 4 51 20 46 9 -3 87 -22
172 -42z"/>
</g>
</svg>
